<?xml version="1.0" encoding="UTF-8"?>
<svg width="598px" height="403px" viewBox="0 0 598 403" version="1.1" xmlns="http://www.w3.org/2000/svg" xmlns:xlink="http://www.w3.org/1999/xlink">
    <!-- Generator: Sketch 59.1 (86144) - https://sketch.com -->
    <title>Artboard</title>
    <desc>Created with Sketch.</desc>
    <defs>
        <linearGradient x1="50%" y1="0%" x2="50%" y2="100%" id="linearGradient-1">
            <stop stop-color="#4387FD" offset="0%"></stop>
            <stop stop-color="#4683EA" offset="100%"></stop>
        </linearGradient>
    </defs>
    <g id="Artboard" stroke="none" stroke-width="1" fill="none" fill-rule="evenodd">
        <g id="Host-App" transform="translate(9.000000, 27.000000)">
            <rect id="Rectangle" fill="#D2F6E4" x="18" y="0" width="257" height="163" rx="8"></rect>
            <g id="chart-1" transform="translate(0.000000, 13.000000)">
                <rect id="Rectangle" x="0" y="0" width="253" height="157"></rect>
                <g id="Group" transform="translate(22.000000, 15.000000)">
                    <g>
                        <g fill="#FFFFFF" id="Path">
                            <path d="M190.864372,54.4468 C190.400067,49.8902015 187.091911,47.8586254 183.986805,47.8586254 C182.56485,47.8586254 181.43319,48.2648677 180.997866,48.4390323 L180.388474,48.7002185 L179.866146,49.0775954 C179.140647,49.6290154 177.863779,50.3835262 176.732059,50.78989 C176.673976,49.8611538 176.702957,48.6712315 176.848045,47.6844 L176.877147,47.5102962 C177.718691,39.5 176.035602,34.8273323 171.88578,33.63741 C171.189323,33.4342585 170.463825,33.3471762 169.738386,33.3471762 C167.213812,33.3471762 164.979293,34.5661462 163.528295,35.6109515 C162.30951,34.0727 160.278162,33.2019985 157.724426,33.2019985 C153.922984,33.2019985 150.875901,34.9723885 149.773283,37.8166923 C149.657116,38.1069262 149.512028,38.5422162 149.337959,39.1226838 C147.10344,34.18883 142.547397,32.30231 138.310632,32.30231 C134.306018,32.30231 130.417391,33.8695485 128.966514,34.9723885 C128.908431,35.0304838 128.821366,35.0595315 128.734362,35.1466138 C124.932799,37.84574 121.972841,41.2413423 119.88347,45.3335423 C118.867856,41.7927623 116.633337,38.4841815 112.628723,35.9882677 L112.57064,35.9301723 C112.454534,35.8721377 112.367469,35.8140423 112.251483,35.7560685 C116.169032,28.7905777 119.651317,19.5613723 117.561946,10.7675177 C115.356468,1.39307385 109.842895,0 106.73785,0 C105.461042,0 104.155072,0.232138462 102.820301,0.696476154 L102.733116,0.725523846 L102.646111,0.754571538 C96.8132003,3.04745538 94.2595845,6.50109231 93.7081549,7.31369846 C93.1277438,8.1844 86.7436442,17.8780038 85.205582,32.0701715 C85.0314527,33.63741 84.8573836,35.2627438 84.683194,36.8879562 C83.7836262,35.6109515 82.3037076,34.4500162 79.953082,33.7244923 C79.2276435,33.4923538 78.4731634,33.4052715 77.7186833,33.4052715 C74.4975315,33.4052715 71.8857722,35.3787523 70.4927978,36.6848654 L70.4638164,36.6558177 C69.2450315,34.85638 67.3007479,33.7824662 65.1532934,33.6955054 L64.6309054,33.6955054 C61.2067032,33.6955054 58.478958,35.2046485 56.4765912,36.9170038 C55.199723,34.6822154 52.849218,33.2891415 50.092371,33.2891415 C49.8602186,33.2891415 49.6571681,33.2891415 49.4539972,33.3181285 L48.9896924,33.3181285 C45.1881297,33.3181285 42.1991303,35.1175662 40.9803454,38.1069262 C40.8932808,38.3391254 40.7771744,38.6292985 40.6611886,39.0066146 C37.6721893,35.29167 33.8706868,33.5503277 28.7633347,33.5503277 L28.2699281,33.5503277 C25.0778782,33.6083623 17.1266145,34.9434015 12.2513546,45.91401 C11.4968744,47.5973785 10.9164634,49.3097338 10.4812606,50.9930415 C9.40756341,50.4996562 8.42081041,50.3835262 7.69531167,50.3835262 C5.14175615,50.3835262 3.22639369,51.8346954 2.29784448,53.1987215 C1.54336435,54.3016223 -0.865223975,58.2197185 0.324579495,62.0506715 C0.962953312,64.1113562 2.44293218,65.6785338 4.53236372,66.4912615 C6.36054101,67.2167854 8.68206467,67.9133223 10.4231773,68.4067077 C11.4968744,70.8446477 13.4121767,73.6597823 16.8073975,76.2429 C19.2159858,78.0712638 22.2920498,79 25.919423,79 C32.0134678,79 37.9042814,76.3589085 38.5427757,76.0687354 L38.7749281,75.9526054 L38.8328909,75.8946315 C39.9937129,77.1136015 41.5316546,77.9842423 43.4759984,78.3614977 C44.0564095,78.4776277 44.8108896,78.5645885 45.681476,78.5645885 C48.9896924,78.5645885 51.2821744,76.8813415 53.4005271,73.7178777 C55.1417603,76.4460515 58.304889,77.9842423 62.0482479,77.9842423 L62.0773498,77.9842423 C62.2804003,77.9842423 62.4835713,78.1292985 62.7157237,78.1292985 C64.6889886,78.1292985 67.1556603,77.4327615 69.2160502,74.1242415 C70.9281211,77.2005623 74.0622082,78.9709523 77.7766461,78.9709523 C81.0848022,78.9709523 83.9578158,77.6069262 84.4801435,77.34574 L84.5961896,77.2877054 C85.6989284,76.7072377 86.6275379,76.1848046 87.3530366,75.7785015 C89.8196479,77.0845538 93.5630672,78.5356623 98.1480915,78.5356623 C98.9316735,78.5356623 99.715135,78.5066754 100.498717,78.4195323 L100.701768,78.3905454 L100.904938,78.3614977 C110.626356,76.4460515 116.952554,74.1242415 120.725015,72.3538515 C123.365755,75.3141638 127.573539,78.1583462 133.58052,78.5936362 C134.247935,78.6517315 134.944392,78.6807185 135.611868,78.6807185 C140.545151,78.6807185 144.491681,77.2877054 147.393676,75.7494538 C148.322225,76.7362854 149.483047,77.6359738 150.992068,78.2454285 C151.891635,78.6226838 152.820245,78.7968485 153.777896,78.7968485 C159.813857,78.7968485 162.628667,71.5991585 163.412249,69.16134 L164.863186,65.2722915 C166.139994,66.6363177 167.765121,67.7391577 169.825451,68.3196254 C170.957171,68.6388462 172.176076,68.8130715 173.423843,68.8130715 C180.069197,68.8130715 186.453417,64.1113562 187.469151,63.3276762 C189.297328,61.8184723 191.299695,58.7131038 190.864372,54.4468"></path>
                        </g>
                        <g transform="translate(4.831456, 4.903348)" fill="#E24B31" id="Shape">
                            <path d="M125.153503,51.5101877 C125.153503,51.5101877 124.311958,48.5498146 127.446045,42.8322808 C130.551091,37.1439162 132.988721,40.2492846 132.988721,40.2492846 C132.988721,40.2492846 135.658443,43.1516838 132.611481,47.4760223 C129.564398,51.8294085 125.153503,51.5101877 125.153503,51.5101877 M101.212708,55.6313746 C97.6433574,64.97671 88.9667155,61.1747438 88.9667155,61.1747438 C88.9667155,61.1747438 87.9799625,57.8371762 90.7948927,48.4628538 C93.6097025,39.1174577 100.226075,42.7743677 100.226075,42.7743677 C100.226075,42.7743677 104.782118,46.2861 101.212708,55.6313746 M94.7414227,16.4797038 C94.7414227,16.4797038 100.13901,2.40366615 101.44492,9.25308769 C102.75077,16.1023877 90.127417,36.4763662 90.127417,36.4763662 C90.2435233,31.8907808 94.7414227,16.4797038 94.7414227,16.4797038 M17.5504899,51.5101877 C17.782582,42.4550862 23.7025577,38.5079423 25.7628874,40.4815446 C27.8232773,42.4550862 27.0687972,46.72139 23.18023,49.3914685 C19.3205839,52.0616077 17.5504899,51.5101877 17.5504899,51.5101877 M181.102525,50.0299708 C180.812349,46.9826977 178.055502,48.1145246 178.055502,48.1145246 C178.055502,48.1145246 173.644547,51.5391746 169.75604,51.1618585 C165.896394,50.7556162 167.115299,42.1068177 167.115299,42.1068177 C167.115299,42.1068177 167.956844,34.1545562 165.664302,33.4870062 C163.37182,32.8195777 160.55689,35.54763 160.55689,35.54763 C160.55689,35.54763 157.045623,39.4366785 155.391575,44.3705323 L154.92727,44.51571 C154.92727,44.51571 155.449538,35.8378638 154.840145,33.8643223 C154.37584,32.8774908 150.197098,32.9646338 149.529682,34.7059762 C148.833165,36.4473185 145.495967,48.60791 145.263815,53.7159285 C145.263815,53.7159285 138.734507,59.2592977 133.017702,60.1880338 C127.300958,61.0877223 125.937025,57.5178946 125.937025,57.5178946 C125.937025,57.5178946 141.462373,53.1934346 140.910943,40.8008262 C140.388615,28.4080962 128.403697,32.9936208 127.039824,34.0093785 C125.733914,34.99621 118.740241,39.20454 116.679972,50.9006723 C116.621889,51.3070362 116.476801,53.0483785 116.476801,53.0483785 C116.476801,53.0483785 110.469821,57.0825438 107.132623,58.1564577 C107.132623,58.1564577 116.476801,42.4260385 105.072293,35.2573962 C99.906858,32.1520277 95.7861385,38.6821677 95.7861385,38.6821677 C95.7861385,38.6821677 111.224421,21.50064 107.800099,6.96020385 C106.174972,0.0527476923 102.721668,-0.701823846 99.529618,0.430124615 C94.7124413,2.34557077 92.884264,5.13171846 92.884264,5.13171846 C92.884264,5.13171846 86.6451315,14.1868808 85.1941341,27.6534638 C83.7431968,41.1199862 81.6247839,57.3727777 81.6247839,57.3727777 C81.6247839,57.3727777 78.6648864,60.2749946 75.9370208,60.4201723 C73.2092155,60.5652285 74.4280003,52.2938677 74.4280003,52.2938677 C74.4280003,52.2938677 76.5464735,39.6688777 76.4013256,37.5501585 C76.2561776,35.4315608 76.1112104,34.2705646 73.5864555,33.5160538 C71.0908628,32.7614823 68.3340158,35.9539938 68.3340158,35.9539938 C68.3340158,35.9539938 61.1082508,46.8955546 60.4988584,48.5788623 L60.121558,49.27546 L59.744318,48.8110008 C59.744318,48.8110008 64.8517303,33.89337 59.9764703,33.6902185 C55.1012707,33.4579585 51.9091606,39.0013885 51.9091606,39.0013885 C51.9091606,39.0013885 46.3664852,48.2886285 46.1343328,49.3334946 L45.7570927,48.8690962 C45.7570927,48.8690962 48.049635,38.0726523 47.58527,35.4025738 C47.1209653,32.7324346 44.6253726,33.2838546 44.6253726,33.2838546 C44.6253726,33.2838546 41.4332625,32.9065385 40.5917779,34.9671623 C39.7501126,37.0277862 36.7031505,50.6394862 36.3259104,54.9638246 C36.3259104,54.9638246 28.3456653,60.6813585 23.0931653,60.7394538 C17.8406653,60.8265362 18.3919744,57.4017646 18.3919744,57.4017646 C18.3919744,57.4017646 37.6317599,50.81359 32.3792599,37.8114662 C30.0286946,34.4738377 27.2719681,33.4289108 23.4123221,33.4870062 C19.5237549,33.5740885 14.9677722,35.9249462 11.8336852,42.9194238 C10.3537666,46.2570523 9.74431388,49.4205162 9.74431388,51.8294085 L9.74431388,51.8294085 C9.74431388,51.8294085 6.14592208,52.5260062 4.3177448,50.9877546 C2.48956751,49.4785508 1.44485174,50.9877546 1.44485174,50.9877546 C1.44485174,50.9877546 -1.74719811,55.5444138 1.35778707,56.7632623 C4.46283249,57.9822323 9.28000915,59.1141808 9.28000915,59.1141808 L9.28000915,59.1141808 C9.71533249,61.0877223 11.0211218,64.3092208 14.8226845,67.1824508 C20.5105079,71.50685 31.4796319,66.5149008 31.4796319,66.5149008 L35.9776517,63.8448223 C35.9776517,63.8448223 36.1227394,67.8790485 39.4019744,68.4885638 C42.6810287,69.0979577 44.0449615,68.4304685 49.7327246,54.6156777 C53.0699827,47.5341177 53.3020748,47.9113123 53.3020748,47.9113123 L53.6793148,47.8242908 C53.6793148,47.8242908 51.0965972,61.3489085 52.0832899,65.0057577 C53.0699827,68.6626677 57.3938129,68.2852908 57.3938129,68.2852908 C57.3938129,68.2852908 59.744318,69.1269446 61.6595599,62.4227008 C63.5748621,55.7185177 67.2022353,48.72404 67.2022353,48.72404 L67.6665401,48.72404 C67.6665401,48.72404 66.0705151,62.1905623 68.5081451,66.6020438 C70.9457148,71.0134646 77.2429306,67.9080962 77.2429306,67.9080962 C77.2429306,67.9080962 81.6537653,65.5861646 82.3503429,64.8896885 C82.3503429,64.8896885 87.573741,69.30117 94.9735751,68.4885638 C111.485495,65.2380177 117.347387,60.8265362 117.347387,60.8265362 C117.347387,60.8265362 120.191299,67.9951177 128.955006,68.6626677 C138.995701,69.4171785 144.480353,63.0902508 144.480353,63.0902508 C144.480353,63.0902508 144.393228,67.1824508 147.904556,68.63362 C151.415883,70.0847285 153.766448,62.4227008 153.766448,62.4227008 L159.62834,46.72139 L160.150668,46.72139 C160.150668,46.72139 160.440844,56.7632623 166.244713,58.4466308 C172.077564,60.1008908 179.593444,54.2963962 179.593444,54.2963962 C179.593444,54.2963962 181.421742,53.0774262 181.102525,50.0299708"></path>
                        </g>
                    </g>
                </g>
            </g>
            <text font-family="NunitoSans-Bold, Nunito Sans" font-size="24" font-weight="bold" fill="#363537">
                <tspan x="159" y="33">Host App</tspan>
            </text>
        </g>
        <g id="empress-blog" transform="translate(28.000000, 128.000000)">
            <rect id="Rectangle" fill="#D2F6E4" x="0" y="83" width="257" height="163" rx="8"></rect>
            <g id="Routes" transform="translate(172.000000, 0.000000)">
                <g id="Group" transform="translate(0.500000, 0.462400)">
                    <g id="Path">
                        <g transform="translate(5.982602, 0.000000)" fill="#CFD8DC">
                            <polygon points="19.1898121 0.746237037 1.30418276 11.0068704 0 10.2606333 18.0719681 0"></polygon>
                        </g>
                        <g transform="translate(1.324824, 0.746174)" fill="#B0BEC5">
                            <polygon points="0 49.6241333 23.8475267 35.818937 23.8475267 0 5.86875948 10.2606333 0 20.8943852"></polygon>
                        </g>
                        <g transform="translate(0.020704, 20.148148)" fill="#90A4AE">
                            <polygon points="0 29.4759852 1.30418276 30.2222222 1.30418276 0.746237037 0 0"></polygon>
                        </g>
                        <g transform="translate(0.000000, 9.871900)" fill="#ECEFF1">
                            <path d="M0.0207043103,10.2761852 C-0.103479598,11.2711679 0.331227011,11.7686593 1.32482414,11.7686593 L8.03201379,0.761788889 C7.41096839,-0.108820988 6.72783103,-0.233193827 5.98260172,0.38867037 L0.0207043103,10.2761852 Z"></path>
                        </g>
                        <g transform="translate(1.324887, 10.633752)" fill="#C4CED4">
                            <path d="M6.70712672,0 L0,11.0068704 C2.11150402,9.39002346 4.53353075,8.39504074 7.26608017,8.02192222 C7.26608017,3.29583827 7.07976236,0.621864198 6.70712672,0 Z"></path>
                        </g>
                        <g transform="translate(1.324887, 18.655674)" fill="#788F9B">
                            <path d="M7.26608017,0 C4.28512098,0.248745679 1.86309425,1.24370741 0,2.98488519 L0,4.10424074 C1.73886839,2.36306296 4.16089511,0.994982716 7.26608017,0 Z"></path>
                        </g>
                    </g>
                    <g transform="translate(9.439655, 0.000000)" id="Path">
                        <g>
                            <g transform="translate(5.982602, 0.000000)" fill="#CFD8DC">
                                <polygon points="19.1898121 0.746237037 1.30418276 11.0068704 0 10.2606333 18.0719681 0"></polygon>
                            </g>
                            <g transform="translate(1.324824, 0.746174)" fill="#B0BEC5">
                                <polygon points="0 49.6241333 23.8475267 35.818937 23.8475267 0 5.86875948 10.2606333 0 20.8943852"></polygon>
                            </g>
                            <g transform="translate(0.020704, 20.148148)" fill="#90A4AE">
                                <polygon points="0 29.4759852 1.30418276 30.2222222 1.30418276 0.746237037 0 0"></polygon>
                            </g>
                            <g transform="translate(0.000000, 9.871900)" fill="#ECEFF1">
                                <path d="M0.0207043103,10.2761852 C-0.103479598,11.2711679 0.331227011,11.7686593 1.32482414,11.7686593 L8.03201379,0.761788889 C7.41096839,-0.108820988 6.72783103,-0.233193827 5.98260172,0.38867037 L0.0207043103,10.2761852 Z"></path>
                            </g>
                            <g transform="translate(1.324887, 10.633752)" fill="#C4CED4">
                                <path d="M6.70712672,0 L0,11.0068704 C2.11150402,9.39002346 4.53353075,8.39504074 7.26608017,8.02192222 C7.26608017,3.29583827 7.07976236,0.621864198 6.70712672,0 Z"></path>
                            </g>
                            <g transform="translate(1.324887, 18.655674)" fill="#788F9B">
                                <path d="M7.26608017,0 C4.28512098,0.248745679 1.86309425,1.24370741 0,2.98488519 L0,4.10424074 C1.73886839,2.36306296 4.16089511,0.994982716 7.26608017,0 Z"></path>
                            </g>
                        </g>
                    </g>
                    <g transform="translate(18.879310, 0.000000)" id="Path">
                        <g>
                            <g transform="translate(5.982602, 0.000000)" fill="#CFD8DC">
                                <polygon points="19.1898121 0.746237037 1.30418276 11.0068704 0 10.2606333 18.0719681 0"></polygon>
                            </g>
                            <g transform="translate(1.324824, 0.746174)" fill="#B0BEC5">
                                <polygon points="0 49.6241333 23.8475267 35.818937 23.8475267 0 5.86875948 10.2606333 0 20.8943852"></polygon>
                            </g>
                            <g transform="translate(0.020704, 20.148148)" fill="#90A4AE">
                                <polygon points="0 29.4759852 1.30418276 30.2222222 1.30418276 0.746237037 0 0"></polygon>
                            </g>
                            <g transform="translate(0.000000, 9.871900)" fill="#ECEFF1">
                                <path d="M0.0207043103,10.2761852 C-0.103479598,11.2711679 0.331227011,11.7686593 1.32482414,11.7686593 L8.03201379,0.761788889 C7.41096839,-0.108820988 6.72783103,-0.233193827 5.98260172,0.38867037 L0.0207043103,10.2761852 Z"></path>
                            </g>
                            <g transform="translate(1.324887, 10.633752)" fill="#C4CED4">
                                <path d="M6.70712672,0 L0,11.0068704 C2.11150402,9.39002346 4.53353075,8.39504074 7.26608017,8.02192222 C7.26608017,3.29583827 7.07976236,0.621864198 6.70712672,0 Z"></path>
                            </g>
                            <g transform="translate(1.324887, 18.655674)" fill="#788F9B">
                                <path d="M7.26608017,0 C4.28512098,0.248745679 1.86309425,1.24370741 0,2.98488519 L0,4.10424074 C1.73886839,2.36306296 4.16089511,0.994982716 7.26608017,0 Z"></path>
                            </g>
                        </g>
                    </g>
                    <g transform="translate(28.318966, 0.000000)" id="Path">
                        <g>
                            <g transform="translate(5.982602, 0.000000)" fill="#CFD8DC">
                                <polygon points="19.1898121 0.746237037 1.30418276 11.0068704 0 10.2606333 18.0719681 0"></polygon>
                            </g>
                            <g transform="translate(1.324824, 0.746174)" fill="#B0BEC5">
                                <polygon points="0 49.6241333 23.8475267 35.818937 23.8475267 0 5.86875948 10.2606333 0 20.8943852"></polygon>
                            </g>
                            <g transform="translate(0.020704, 20.148148)" fill="#90A4AE">
                                <polygon points="0 29.4759852 1.30418276 30.2222222 1.30418276 0.746237037 0 0"></polygon>
                            </g>
                            <g transform="translate(0.000000, 9.871900)" fill="#ECEFF1">
                                <path d="M0.0207043103,10.2761852 C-0.103479598,11.2711679 0.331227011,11.7686593 1.32482414,11.7686593 L8.03201379,0.761788889 C7.41096839,-0.108820988 6.72783103,-0.233193827 5.98260172,0.38867037 L0.0207043103,10.2761852 Z"></path>
                            </g>
                            <g transform="translate(1.324887, 10.633752)" fill="#C4CED4">
                                <path d="M6.70712672,0 L0,11.0068704 C2.11150402,9.39002346 4.53353075,8.39504074 7.26608017,8.02192222 C7.26608017,3.29583827 7.07976236,0.621864198 6.70712672,0 Z"></path>
                            </g>
                            <g transform="translate(1.324887, 18.655674)" fill="#788F9B">
                                <path d="M7.26608017,0 C4.28512098,0.248745679 1.86309425,1.24370741 0,2.98488519 L0,4.10424074 C1.73886839,2.36306296 4.16089511,0.994982716 7.26608017,0 Z"></path>
                            </g>
                        </g>
                    </g>
                    <g transform="translate(37.758621, 0.000000)" id="Path">
                        <g>
                            <g transform="translate(5.982602, 0.000000)" fill="#CFD8DC">
                                <polygon points="19.1898121 0.746237037 1.30418276 11.0068704 0 10.2606333 18.0719681 0"></polygon>
                            </g>
                            <g transform="translate(1.324824, 0.746174)" fill="#B0BEC5">
                                <polygon points="0 49.6241333 23.8475267 35.818937 23.8475267 0 5.86875948 10.2606333 0 20.8943852"></polygon>
                            </g>
                            <g transform="translate(0.020704, 20.148148)" fill="#90A4AE">
                                <polygon points="0 29.4759852 1.30418276 30.2222222 1.30418276 0.746237037 0 0"></polygon>
                            </g>
                            <g transform="translate(0.000000, 9.871900)" fill="#ECEFF1">
                                <path d="M0.0207043103,10.2761852 C-0.103479598,11.2711679 0.331227011,11.7686593 1.32482414,11.7686593 L8.03201379,0.761788889 C7.41096839,-0.108820988 6.72783103,-0.233193827 5.98260172,0.38867037 L0.0207043103,10.2761852 Z"></path>
                            </g>
                            <g transform="translate(1.324887, 10.633752)" fill="#C4CED4">
                                <path d="M6.70712672,0 L0,11.0068704 C2.11150402,9.39002346 4.53353075,8.39504074 7.26608017,8.02192222 C7.26608017,3.29583827 7.07976236,0.621864198 6.70712672,0 Z"></path>
                            </g>
                            <g transform="translate(1.324887, 18.655674)" fill="#788F9B">
                                <path d="M7.26608017,0 C4.28512098,0.248745679 1.86309425,1.24370741 0,2.98488519 L0,4.10424074 C1.73886839,2.36306296 4.16089511,0.994982716 7.26608017,0 Z"></path>
                            </g>
                        </g>
                    </g>
                    <g transform="translate(47.198276, 0.000000)" id="Path">
                        <g>
                            <g transform="translate(5.982602, 0.000000)" fill="#CFD8DC">
                                <polygon points="19.1898121 0.746237037 1.30418276 11.0068704 0 10.2606333 18.0719681 0"></polygon>
                            </g>
                            <g transform="translate(1.324824, 0.746174)" fill="#B0BEC5">
                                <polygon points="0 49.6241333 23.8475267 35.818937 23.8475267 0 5.86875948 10.2606333 0 20.8943852"></polygon>
                            </g>
                            <g transform="translate(0.020704, 20.148148)" fill="#90A4AE">
                                <polygon points="0 29.4759852 1.30418276 30.2222222 1.30418276 0.746237037 0 0"></polygon>
                            </g>
                            <g transform="translate(0.000000, 9.871900)" fill="#ECEFF1">
                                <path d="M0.0207043103,10.2761852 C-0.103479598,11.2711679 0.331227011,11.7686593 1.32482414,11.7686593 L8.03201379,0.761788889 C7.41096839,-0.108820988 6.72783103,-0.233193827 5.98260172,0.38867037 L0.0207043103,10.2761852 Z"></path>
                            </g>
                            <g transform="translate(1.324887, 10.633752)" fill="#C4CED4">
                                <path d="M6.70712672,0 L0,11.0068704 C2.11150402,9.39002346 4.53353075,8.39504074 7.26608017,8.02192222 C7.26608017,3.29583827 7.07976236,0.621864198 6.70712672,0 Z"></path>
                            </g>
                            <g transform="translate(1.324887, 18.655674)" fill="#788F9B">
                                <path d="M7.26608017,0 C4.28512098,0.248745679 1.86309425,1.24370741 0,2.98488519 L0,4.10424074 C1.73886839,2.36306296 4.16089511,0.994982716 7.26608017,0 Z"></path>
                            </g>
                        </g>
                    </g>
                </g>
            </g>
            <g id="Cog" transform="translate(16.000000, 93.000000)">
                <g id="Group">
                    <g transform="translate(0.001281, 0.001277)" fill="#D0CFCE" fill-rule="nonzero" id="Shape">
                        <path d="M49.604529,22.7102557 C49.604529,22.7102557 47.295557,22.1394155 48.230565,20.0793423 L53.960478,10.5857557 L48.388372,5.38487526 L39.310108,11.3468557 C38.110421,11.8796804 36.718706,11.1985041 36.409558,9.92617216 L34.010245,0 L26.377193,0 L23.985566,9.87666082 C23.6802,11.1325093 22.331673,11.8809577 21.133328,11.3634 L21.07611,11.3379753 L11.997846,5.37599485 L6.42574,10.5768753 L12.155653,20.0704619 C13.091942,22.1305351 10.78419,22.7013753 10.78419,22.7013753 L0,25.3741361 L0.251869,32.9814866 L10.889781,35.1759825 C11.466292,35.3952557 11.916838,35.8563072 12.121615,36.4365753 C12.326514,37.0169041 12.264965,37.6576928 11.953316,38.1887536 L11.911348,38.2597361 L6.181496,47.7533227 L11.753602,52.9542639 L20.887803,46.9922227 L20.929771,46.9795711 C22.405483,46.5012454 23.974098,47.4184216 24.339183,48.9228608 L26.622718,58.3530072 L34.25577,58.3530072 L36.656364,48.4383309 C36.964231,47.1647216 38.356007,46.482268 39.556914,47.0175866 L48.635117,52.979567 L54.207223,47.7786866 L48.477371,38.2851 L48.435403,38.2140567 C48.123754,37.6831175 48.062205,37.0423289 48.267104,36.462 C48.471942,35.8816711 48.922488,35.4206196 49.498938,35.2013464 L60.13685,33.0067897 L60.38878,25.3995 L49.60581,22.7267392 L49.604529,22.7102557 Z M30.193719,41.8597701 C23.167556,41.8597701 17.471986,36.1806247 17.471986,29.1746485 C17.471986,22.1685505 23.167556,16.489466 30.193719,16.489466 C37.219943,16.489466 42.915452,22.1685505 42.915452,29.1746485 C42.915452,36.1806247 37.219943,41.8597701 30.193719,41.8597701 Z"></path>
                    </g>
                    <g transform="translate(17.473267, 16.490743)" fill="#9B9B9A" fill-rule="nonzero" id="Shape">
                        <path d="M12.721672,0 C5.695509,0 0,5.67914536 0,12.6851216 C0,19.6912196 5.695509,25.3703649 12.721672,25.3703649 C19.747957,25.3703649 25.443466,19.6912196 25.443466,12.6851216 C25.443466,5.67914536 19.747957,0 12.721672,0 Z M12.721672,19.0277433 C9.208743,19.0277433 6.360897,16.1880794 6.360897,12.6851216 C6.360897,9.18228557 9.208743,6.34262165 12.721672,6.34262165 C16.234723,6.34262165 19.082569,9.18228557 19.082569,12.6851216 C19.082569,16.1880794 16.234723,19.0277433 12.721672,19.0277433 Z"></path>
                    </g>
                    <g transform="translate(23.834164, 22.833304)" id="Path">
                        <path d="M0,6.34262165 C0,2.82877629 2.836927,0 6.360897,0 C9.884806,0 12.721672,2.82877629 12.721672,6.34262165 C12.721672,9.85640619 9.884806,12.6851216 6.360897,12.6851216 C2.836927,12.6851216 0,9.85640619 0,6.34262165 Z"></path>
                    </g>
                    <g transform="translate(17.473267, 16.490743)" id="Path">
                        <path d="M0,12.6851216 C0,5.6576134 5.673915,0 12.721672,0 C19.769551,0 25.443466,5.6576134 25.443466,12.6851216 C25.443466,19.7127515 19.769551,25.3703649 12.721672,25.3703649 C5.673915,25.3703649 0,19.7127515 0,12.6851216 Z"></path>
                    </g>
                    <path d="M23.986786,9.87666082 C23.68142,11.1325093 22.332954,11.8809577 21.134609,11.3634 L21.078611,11.3379753 L12.000408,5.37599485 L6.428302,10.5768753 L12.158154,20.0704619 C13.094443,22.1305351 10.78419,22.7013753 10.78419,22.7013753 L0,25.3741361 L0.251869,32.9814866 L10.889781,35.1759825 C11.466292,35.3952557 11.916838,35.8563072 12.121615,36.4365753 C12.326514,37.0169041 12.264965,37.6576928 11.953316,38.1887536 L11.911287,38.2597361 L6.181496,47.7533227 L11.753602,52.9542639 L20.887742,46.9922227 L20.929771,46.9795711 C22.405483,46.5012454 23.974098,47.4184216 24.339183,48.9228608 L26.622718,58.3530072 L34.25577,58.3530072 L36.656364,48.4383309 C36.964231,47.1647216 38.356007,46.482268 39.556914,47.0175866 L48.635117,52.979567 L54.207223,47.7786866 L48.477371,38.2851 L48.435342,38.2140567 C48.123754,37.6831175 48.062205,37.0423289 48.267104,36.462 C48.471942,35.8816711 48.922488,35.4206196 49.498938,35.2013464 L60.136789,33.0067897 L60.388719,25.3995 L49.604529,22.7267392 C49.604529,22.7267392 47.295557,22.155899 48.233127,20.0958866 L53.962979,10.6022392 L48.390873,5.40129794 L39.31267,11.3634 C38.112983,11.8961639 36.721207,11.2149876 36.41212,9.94265567 L34.011526,0 L26.378474,0 L23.986786,9.87666082" id="Path"></path>
                </g>
            </g>
            <path id="Line-2" d="M206,57 L213,71 L207,71 L207,121 L85,121 L85,119 L205,119 L205,71 L199,71 L206,57 Z" fill="#000000" fill-rule="nonzero"></path>
            <path id="Line" d="M46.515997,18.9842549 L48.5157451,19.015997 L47.721,69.017 L53.7213126,69.1128605 L46.5,83 L39.7230759,68.8906662 L45.722,68.985 L46.515997,18.9842549 Z" fill="#000000" fill-rule="nonzero"></path>
            <text font-family="NunitoSans-Bold, Nunito Sans" font-size="21" font-weight="bold" fill="#363537">
                <tspan x="12" y="238">empress-blog</tspan>
            </text>
        </g>
        <g id="Template" transform="translate(308.000000, 211.000000)">
            <rect id="Rectangle" fill="#D2F6E4" x="0" y="0" width="257" height="163" rx="8"></rect>
            <g id="Mustash" transform="translate(15.000000, 60.000000)" fill="#000000" fill-rule="nonzero">
                <g id="Group">
                    <g id="Path">
                        <path d="M14.8071675,16.0183625 C16.0577595,14.99225 16.9715558,13.6166625 17.4682834,12.068525 C18.3818166,9.6889625 17.2152699,7.02625 14.8071675,6.0708375 C7.12183865,2.1874125 2.15965092,9.105075 1.44122945,10.715075 C0.722807975,12.325075 -0.545505521,14.88165 0.25713681,20.71125 C1.05960368,26.54085 3.88030061,31.9237625 12.7009442,34.0424 C21.1402252,35.9974125 29.9963117,34.927025 37.7568252,31.123225 L63.8331822,20.277775 C66.2445307,19.688375 68.7164129,19.3809875 71.1992613,19.362175 L71.1992613,10.45415 C67.2621117,3.3966625 59.5126521,-0.6699 51.4514877,0.090825 C37.3667773,1.19665 31.7702135,8.4238875 28.3909393,11.520075 C25.011665,14.6162625 18.6035104,21.9541 14.341584,20.6714375 C10.0798331,19.388775 8.87801902,14.1385125 10.3816245,12.5241375 C11.8849669,10.909675 13.0687963,11.1972 14.0047006,12.5241375 C14.5788061,13.5932125 14.8662098,14.7924875 14.8382239,16.0050625 L14.8071675,16.0183625 Z"></path>
                    </g>
                    <g transform="translate(70.702534, 0.000000)" id="Path">
                        <path d="M56.3918307,16.0183625 C55.1412387,14.99225 54.2277055,13.6166625 53.7309779,12.068525 C52.8174448,9.6889625 53.9837282,7.02625 56.3918307,6.0708375 C64.0771595,2.1874125 69.0396104,9.105075 69.7580319,10.715075 C70.4764534,12.325075 71.7447669,14.88165 70.9421245,20.71125 C70.1393945,26.54085 67.3189607,31.9237625 58.4983172,34.0424 C50.0590362,35.9974125 41.2029497,34.927025 33.442173,31.123225 L7.36607914,20.277775 C4.95464294,19.688375 2.48276074,19.3809875 0,19.362175 L0,10.45415 C3.93714969,3.3966625 11.686346,-0.6699 19.7477736,0.090825 C33.8323963,1.19665 39.4290479,8.4238875 42.8083221,11.520075 C46.1875086,14.6162625 52.5956632,21.9142875 56.8574141,20.631625 C61.119165,19.3489625 62.3209791,14.0987 60.8176368,12.484325 C59.3142945,10.8698625 58.1302018,11.1573875 57.194473,12.484325 C56.620192,13.5534 56.3330515,14.752675 56.3607742,15.96525 L56.3918307,16.0183625 Z"></path>
                    </g>
                </g>
            </g>
            <g id="CSS" transform="translate(173.000000, 28.000000)">
                <g id="Group">
                    <g transform="translate(0.000000, 18.409091)" fill="#1572B6" id="Path">
                        <polyline points="73 0 0 8.18181818e-14 6.08333333 70.5681818 36.5 79.7727273 66.9166667 70.5681818 73 0"></polyline>
                    </g>
                    <g transform="translate(36.500000, 24.545455)" fill="#33A9DC" id="Path">
                        <polygon points="26.4492789 39.8863636 26.9782856 33.75 27.7717956 24.5454545 28.5653056 15.3409091 29.3586533 6.13636364 29.88766 0 0 0 0 67.5 18.4672967 61.9114909 24.7135011 60.0214091 25.5281811 50.5702636 26.3430233 41.1192"></polygon>
                    </g>
                    <g transform="translate(15.816667, 0.000000)" fill="#000000" id="Path">
                        <polygon points="10.95 0 0 0 0 13.5 10.95 13.5 10.95 9.81818182 3.65 9.81818182 3.65 3.68181818 10.95 3.68181818"></polygon>
                    </g>
                    <g transform="translate(30.416667, 0.000000)" fill="#000000" id="Path">
                        <polygon points="12.1666667 0 12.1666667 3.68181818 6.08333333 3.68181818 12.1666667 9.81818182 12.1666667 13.5 0 13.5 0 9.81818182 6.08333333 9.81818182 0 3.68181818 0 0"></polygon>
                    </g>
                    <g transform="translate(46.233333, 0.000000)" fill="#000000" id="Path">
                        <polygon points="12.1666667 0 12.1666667 3.68181818 6.08333333 3.68181818 12.1666667 9.81818182 12.1666667 13.5 0 13.5 0 9.81818182 6.08333333 9.81818182 0 3.68181818 0 0"></polygon>
                    </g>
                    <g transform="translate(16.134217, 64.431818)" fill="#EBEBEB" id="Path">
                        <polygon points="14.2010956 16.5435545 11.0779933 15.5983909 1.08396889 12.5740636 0.269126667 3.12291818 0 0 9.73333333 0 10.2631511 6.14724545 13.3864156 7.09240909 20.3659456 9.20454545 20.3659456 18.4090909"></polygon>
                    </g>
                    <g transform="translate(13.224680, 30.681818)" fill="#EBEBEB" id="Path">
                        <polygon points="0.793428889 9.20454545 10.5266811 9.20454545 13.5684289 9.20454545 23.27532 9.20454545 23.27532 0 12.775 0 9.73333333 0 0 0"></polygon>
                    </g>
                    <g transform="translate(36.500000, 30.681818)" fill="#FFFFFF" id="Path">
                        <polygon points="0 42.9545455 10.1027133 39.8973273 10.6325311 33.75 11.1616189 27.6136364 0 27.6136364 0 18.4090909 11.9551289 18.4090909 12.7486389 9.20454545 0 9.20454545 0 0 13.5419867 0 23.27532 0 22.4818911 9.20454545 21.6883811 18.4090909 20.8948711 27.6136364 20.3659456 33.75 20.0968189 36.8729182 19.2819767 46.3239818 9.28787111 49.3483909 0 52.1590909"></polygon>
                    </g>
                    <g transform="translate(27.586700, 49.090909)" fill="#EBEBEB" id="Path">
                        <polygon points="8.91338111 9.20454545 0.79351 9.20454545 0 0 8.91338111 0"></polygon>
                    </g>
                </g>
            </g>
            <text id="empress-blog-templat" font-family="NunitoSans-Bold, Nunito Sans" font-size="21" font-weight="bold" fill="#363537">
                <tspan x="12" y="155">empress-blog-template</tspan>
            </text>
        </g>
        <g id="Brains" transform="translate(112.000000, 267.000000)">
            <g id="Routes" transform="translate(91.000000, 7.000000)">
                <g id="Group">
                    <path d="M65.38125,31.0714286 C66.20625,29.6904762 66.20625,28.3095238 65.38125,26.9285714 L50.7375,1.65714286 C49.9125,0.552380952 48.8125,0 47.4375,0 L18.5625,0 C17.1875,0 16.0875,0.552380952 15.2625,1.65714286 L0.61875,26.9285714 C-0.20625,28.3095238 -0.20625,29.6904762 0.61875,31.0714286 L15.2625,56.3428571 C16.0875,57.447619 17.1875,58 18.5625,58 L47.4375,58 C48.8125,58 49.9125,57.447619 50.7375,56.3428571 L65.38125,31.0714286 Z" id="Path" fill="url(#linearGradient-1)"></path>
                    <g transform="translate(19.387500, 19.057143)" fill="#000000" fill-opacity="0.07" id="Path">
                        <path d="M43.11054,16.9900229 L28.66875,2.48571429 L14.85,2.48571429 L14.85,8.28571429 L21.8625,15.3285714 L22.06875,16.3642857 L5.775,0 L0,4.76428571 L6.1875,11.6 L4.33125,14.9142857 L0,19.8857143 L18.975,38.9428571 L28.05,38.9428571 C29.425,38.9428571 30.525,38.3904762 31.35,37.2857143 L43.11054,16.9900229 Z"></path>
                    </g>
                    <g transform="translate(19.387500, 30.657143)" fill="#FFFFFF" id="Path">
                        <polygon points="9.28125 3.72857143 6.1875 0 3.3 3.31428571 0 3.31428571 0 8.28571429 5.775 8.28571429"></polygon>
                    </g>
                    <g transform="translate(19.387500, 19.057143)" fill="#FFFFFF" id="Path">
                        <polygon points="21.0375 14.9142857 17.94375 14.9142857 5.775 0 0 0 0 4.76428571 3.3 4.76428571 15.675 19.8857143 21.0375 19.8857143 21.0375 23.8214286 28.66875 17.4 21.0375 10.9785714"></polygon>
                    </g>
                    <g transform="translate(31.143750, 15.121429)" fill="#FFFFFF" id="Path">
                        <polygon points="9.28125 8.90714286 5.98125 8.90714286 3.09375 12.2214286 0 8.49285714 3.50625 3.93571429 9.28125 3.93571429 9.28125 0 16.9125 6.42142857 9.28125 12.8428571"></polygon>
                    </g>
                </g>
            </g>
            <path d="M27.9415907,67.90179 C28.2873926,68.5835808 28.8738226,69.3329135 29.4953106,69.8481635 C30.2546752,70.4782415 31.2044024,70.9237363 32.2079615,71.2815675 C32.9088513,71.531278 33.8340851,71.7484584 34.5828852,71.877841 C35.3586012,72.0128577 36.3118276,72.009437 37.2090688,71.9903214 C38.8048448,71.9734862 40.0641721,71.830555 41.4846583,71.4953272 C42.3806884,71.2849211 43.2311633,71.0520458 43.9215559,70.7898598 C45.2252944,70.2948656 46.0559189,69.7469513 46.2299974,69.3914006 L45.7428198,67.0545987 L45.3923748,64.8044543 C45.1972346,63.1731197 45.2989094,62.0255112 45.5138328,60.1274968 C45.8327861,57.3327917 46.4519189,56.0592213 47.3573023,54.3986432 C48.2217734,52.8235152 49.6469699,50.5958401 50.7474262,49.1669971 C51.8922937,47.6785267 54.7626044,44.7791887 55.8092962,43.6878539 C56.1749486,43.7913466 56.8794048,44.0186549 57.9705078,44.2256403 C58.7882126,44.3831933 59.7694987,44.5722033 60.9868372,44.5328318 C63.8862844,44.4383268 64.9411855,43.9050343 66.6269279,42.8451564 C68.1455898,41.8843445 69.6210517,39.9627207 70.3885584,38.1198398 C70.9784875,36.7022649 71.1595641,35.2621537 70.9025846,33.5689113 C70.72965,32.4303576 70.3476462,31.0937391 70.0427565,30.1914143 C69.7110181,29.2216147 69.1899937,28.1809195 68.7518703,27.3922154 C68.7518703,27.3922154 70.5112276,25.3670988 71.2051193,23.6794905 C71.812611,22.2247575 72.0930073,20.3526331 71.9726259,19.1825553 C71.846525,17.967472 70.7764164,15.7397969 70.1035191,14.9455257 C69.2156984,13.8991965 68.3512272,12.8123555 67.2566252,11.9606704 C66.1818063,11.1258875 64.9668902,10.4418162 63.6958545,9.93105997 C62.3758318,9.39998082 60.7986951,9.0939966 59.5487211,8.88131007 C59.3617902,7.91714452 59.1024556,7.24434142 58.4132069,6.08325135 C57.5522348,4.59256758 56.6071505,3.91862425 55.1211914,2.8711548 C53.3011388,1.57504802 50.7310748,0.232862514 48.2369809,0.0494866116 C46.6864909,-0.0712436826 45.1261094,0.0292307512 43.6061689,0.347623366 C41.8842247,0.704247241 40.1868413,1.37819057 38.8947439,2.01276241 C36.3013304,1.05644434 33.8714309,1.19816829 31.9707652,1.69772342 C30.3586378,2.11846849 30.0163349,2.37273991 28.5420842,3.20758989 C27.0934709,3.80949748 25.5233996,5.21017011 24.3049845,6.83030359 C19.7723482,6.94285105 15.9966541,8.48980855 13.3097752,9.95802307 C10.2537448,11.6287962 7.51081349,14.8217771 6.43720584,16.8525277 C5.23864115,19.1195744 4.04236432,22.3260368 5.05285421,27.2842288 C-1.62578614,31.240024 -0.93889257,37.5775596 2.81573982,41.099061 C6.11011046,44.1975369 11.5773338,45.1628427 16.731458,44.6610742 C18.2758246,46.1686602 24.1145545,52.9821414 24.1145545,52.9821414 C24.1145545,52.9821414 29.9976957,59.366963 27.9393028,67.9006497 L27.9415907,67.90179 Z M22,41.0279968 C22.7667631,40.2916929 23.4237487,39.2389593 23.9360865,38.4445802 C24.5168091,38.4768585 25.7073777,38.5521958 26.8800589,38.4983559 C28.0526757,38.4445802 29.3015554,38.2798519 29.7982014,38 C29.9383291,38.402612 30.9103114,41.7351668 30.9719805,43.7824946 C31.0526992,46.4671097 30.9753384,46.9428772 30.523572,47.8858134 C30.2768956,47.9977926 30.0380974,48.0472689 29.7365323,47.9418351 C28.660326,47.5715013 26.8665628,46.2808839 25.5829417,45.1302246 C23.5919019,43.3476685 22.0021955,41.0398043 22.0021955,41.0398043 L22,41.0279968 Z M45.0290137,40.2972402 C44.9676953,41.1063364 45.0036359,41.91889 45.1362181,42.7216271 C45.3148235,43.7210044 45.4874617,44.6478996 45.9221093,45 C47.4462911,44.761809 48.5084582,43.9125821 49.4276862,43.3150054 L53,40.8243721 C52.4647325,40.3463848 52.0327598,39.7886301 51.7247272,39.1777177 C51.4165575,38.5666819 49.6253593,39.7120732 48.5691594,39.902663 C47.4067839,40.1063416 46.2287016,40.2347598 45.0445148,40.2868679 L45.0290137,40.2972402 Z" id="Shape" fill="#598527" fill-rule="nonzero"></path>
        </g>
    </g>
</svg>